<svg xmlns="http://www.w3.org/2000/svg" fill="current" stroke="current" width="23.135" height="23.136" viewBox="0 0 23.135 23.136"><g transform="matrix(1.33333 0 0 -1.33333 1.333 21.803)"><g transform="scale(.12493)"><path fill-rule="evenodd" style="line-height:normal;font-variant-ligatures:normal;font-variant-position:normal;font-variant-caps:normal;font-variant-numeric:normal;font-variant-alternates:normal;font-variant-east-asian:normal;font-feature-settings:normal;font-variation-settings:normal;text-indent:0;text-align:start;text-decoration-line:none;text-decoration-style:solid;text-decoration-color:#000;text-transform:none;text-orientation:mixed;shape-padding:0;shape-margin:0;inline-size:0;isolation:auto;mix-blend-mode:normal" d="m 47.539,118.777 c 24.6838,0 44.6913,-20.0143 44.6913,-44.6961 0,-24.6815 -20.0075,-44.6936 -44.6913,-44.6936 -24.6838,0 -44.6939,20.0121 -44.6939,44.6936 0,24.6818 20.0101,44.6961 44.6939,44.6961 z m 0,-9.3934 c 19.497,0 35.3024,-15.8054 35.3024,-35.3027 0,-19.497 -15.8054,-35.3001 -35.3024,-35.3001 -19.4993,0 -35.3027,15.8031 -35.3027,35.3001 0,19.4973 15.8034,35.3027 35.3027,35.3027 z" color="#000" font-family="sans-serif" font-weight="400" overflow="visible" white-space="normal"/><path fill-rule="evenodd" style="line-height:normal;font-variant-ligatures:normal;font-variant-position:normal;font-variant-caps:normal;font-variant-numeric:normal;font-variant-alternates:normal;font-variant-east-asian:normal;font-feature-settings:normal;font-variation-settings:normal;text-indent:0;text-align:start;text-decoration-line:none;text-decoration-style:solid;text-decoration-color:#000;text-transform:none;text-orientation:mixed;shape-padding:0;shape-margin:0;inline-size:0;isolation:auto;mix-blend-mode:normal" d="M 47.539062 29.279297 C 22.796889 29.279297 2.7363281 49.340205 2.7363281 74.080078 C 2.7363281 98.82025 22.796883 118.88477 47.539062 118.88477 C 72.281242 118.88477 92.337891 98.820243 92.337891 74.080078 C 92.337891 49.340213 72.281236 29.279297 47.539062 29.279297 z M 47.539062 29.496094 C 72.164489 29.496094 92.123047 49.456943 92.123047 74.080078 C 92.123047 98.703514 72.164483 118.66992 47.539062 118.66992 C 22.913642 118.66992 2.953125 98.703506 2.953125 74.080078 C 2.953125 49.456951 22.913636 29.496094 47.539062 29.496094 z M 47.539062 38.671875 C 27.98141 38.671875 12.128906 54.524718 12.128906 74.080078 C 12.128906 93.635737 27.981402 109.49219 47.539062 109.49219 C 67.09443 109.49219 82.949219 93.635745 82.949219 74.080078 C 82.949219 54.524711 67.094421 38.671875 47.539062 38.671875 z M 47.539062 38.888672 C 66.977704 38.888672 82.734375 54.641446 82.734375 74.080078 C 82.734375 93.519012 66.977695 109.27539 47.539062 109.27539 C 28.098123 109.27539 12.34375 93.519019 12.34375 74.080078 C 12.34375 54.641438 28.098115 38.888672 47.539062 38.888672 z " color="#000" font-family="sans-serif" font-weight="400" overflow="visible" white-space="normal"/></g><path fill-rule="evenodd" d="m -4.0561,10.2458 -1.3365,1.3099 c -0.2225,0.218 -0.2225,0.5749 0,0.7929 l 2.2549,2.2096 c 0.5959,0.5839 1.571,0.5842 2.1671,0 l 3e-4,-3e-4 c 0.5958,-0.5839 0.5958,-1.5398 0,-2.1237 l -2.2331,-2.1884 c -0.2347,-0.2299 -0.6183,-0.2299 -0.8527,0" transform="matrix(0 -.98 1 0 0 0)"/><path fill-rule="evenodd" d="M 8.9076,5.5244 9.9848,6.6016 11.452,5.1344 10.3748,4.0572 Z"/><g transform="scale(.12493)"><path fill-rule="evenodd" style="line-height:normal;font-variant-ligatures:normal;font-variant-position:normal;font-variant-caps:normal;font-variant-numeric:normal;font-variant-alternates:normal;font-variant-east-asian:normal;font-feature-settings:normal;font-variation-settings:normal;text-indent:0;text-align:start;text-decoration-line:none;text-decoration-style:solid;text-decoration-color:#000;text-transform:none;text-orientation:mixed;shape-padding:0;shape-margin:0;inline-size:0;isolation:auto;mix-blend-mode:normal" d="m 47.5231,94.3563 c 11.1586,0 20.2071,-9.0462 20.2071,-20.2071 0,-11.1566 -9.0485,-20.2028 -20.2071,-20.2028 -11.1588,0 -20.2096,9.0462 -20.2096,20.2028 0,11.1609 9.0508,20.2071 20.2096,20.2071 z m 3.8208,-18.7824 c 3.8095,0 6.8908,-3.0926 6.8908,-6.8998 0,-3.8049 -3.0813,-6.893 -6.8908,-6.893 -3.8094,0 -6.8952,3.0881 -6.8952,6.893 0,3.8072 3.0858,6.8998 6.8952,6.8998 z m -12.2159,4.767 c 3.5054,0 6.344,-2.836 6.344,-6.3371 0,-3.5008 -2.8386,-6.3394 -6.344,-6.3394 -3.4988,0 -6.3371,2.8386 -6.3371,6.3394 0,3.5011 2.8383,6.3371 6.3371,6.3371 z m 12.0572,6.7706 c 3.0472,0 5.5157,-2.4707 5.5157,-5.5179 0,-3.0473 -2.4685,-5.5137 -5.5157,-5.5137 -3.0472,0 -5.5137,2.4664 -5.5137,5.5137 0,3.0472 2.4665,5.5179 5.5137,5.5179 z" color="#000" font-family="sans-serif" font-weight="400" overflow="visible" white-space="normal"/><path fill-rule="evenodd" style="line-height:normal;font-variant-ligatures:normal;font-variant-position:normal;font-variant-caps:normal;font-variant-numeric:normal;font-variant-alternates:normal;font-variant-east-asian:normal;font-feature-settings:normal;font-variation-settings:normal;text-indent:0;text-align:start;text-decoration-line:none;text-decoration-style:solid;text-decoration-color:#000;text-transform:none;text-orientation:mixed;shape-padding:0;shape-margin:0;inline-size:0;isolation:auto;mix-blend-mode:normal" d="M 47.523438 51.90625 C 35.262142 51.90625 25.273438 61.888564 25.273438 74.148438 C 25.273438 86.412186 35.262142 96.396484 47.523438 96.396484 C 59.784553 96.396484 69.769531 86.411906 69.769531 74.148438 C 69.769531 61.888844 59.784553 51.90625 47.523438 51.90625 z M 47.523438 55.986328 C 57.579522 55.986328 65.689453 64.094831 65.689453 74.148438 C 65.689453 84.206769 57.579522 92.316406 47.523438 92.316406 C 37.467133 92.316406 29.353516 84.206489 29.353516 74.148438 C 29.353516 64.095111 37.467133 55.986328 47.523438 55.986328 z M 51.34375 59.740234 C 47.169387 59.740234 43.798736 62.706332 42.832031 66.591797 C 41.700832 66.020196 40.47546 65.625 39.128906 65.625 C 34.526756 65.625 30.75 69.400503 30.75 74.003906 C 30.75 78.607515 34.527767 82.380859 39.128906 82.380859 C 40.893545 82.380859 42.445038 81.702089 43.800781 80.759766 C 43.767247 81.046475 43.630859 81.298561 43.630859 81.59375 C 43.630859 85.74175 47.035672 89.152344 51.185547 89.152344 C 55.335421 89.152344 58.740234 85.742643 58.740234 81.59375 C 58.740234 79.356733 57.703826 77.395092 56.140625 76.007812 C 58.568981 74.403684 60.275391 71.780983 60.275391 68.673828 C 60.275391 63.767594 56.255682 59.740234 51.34375 59.740234 z M 51.34375 63.820312 C 54.050818 63.820312 56.195312 65.970262 56.195312 68.673828 C 56.195312 71.38036 54.049212 73.533203 51.34375 73.533203 C 48.638417 73.533203 46.488281 71.378752 46.488281 68.673828 C 46.488281 65.97187 48.63681 63.820312 51.34375 63.820312 z M 39.128906 69.705078 C 41.533034 69.705078 43.431641 71.605826 43.431641 74.003906 C 43.431641 76.402381 41.534042 78.300781 39.128906 78.300781 C 36.732446 78.300781 34.830078 76.402498 34.830078 74.003906 C 34.830078 71.605709 36.733456 69.705078 39.128906 69.705078 z M 51.185547 78.119141 C 53.131992 78.119141 54.660156 79.648106 54.660156 81.59375 C 54.660156 83.539257 53.130072 85.072266 51.185547 85.072266 C 49.241021 85.072266 47.710938 83.54015 47.710938 81.59375 C 47.710938 79.647214 49.239102 78.119141 51.185547 78.119141 z " color="#000" font-family="sans-serif" font-weight="400" overflow="visible" white-space="normal"/></g><path style="line-height:normal;font-variant-ligatures:normal;font-variant-position:normal;font-variant-caps:normal;font-variant-numeric:normal;font-variant-alternates:normal;font-variant-east-asian:normal;font-feature-settings:normal;font-variation-settings:normal;text-indent:0;text-align:start;text-decoration-line:none;text-decoration-style:solid;text-decoration-color:#000;text-transform:none;text-orientation:mixed;shape-padding:0;shape-margin:0;inline-size:0;isolation:auto;mix-blend-mode:normal" d="M 76.386719 147.8418 A 3.2685001 3.2685001 0 0 0 73.119141 151.11133 L 73.119141 164.61328 A 3.2685001 3.2685001 0 0 0 76.386719 167.88086 A 3.2685001 3.2685001 0 0 0 79.65625 164.61328 L 79.65625 151.11133 A 3.2685001 3.2685001 0 0 0 76.386719 147.8418 z " color="#000" font-family="sans-serif" font-weight="400" overflow="visible" transform="scale(.07772 .07797)" white-space="normal"/><path style="line-height:normal;font-variant-ligatures:normal;font-variant-position:normal;font-variant-caps:normal;font-variant-numeric:normal;font-variant-alternates:normal;font-variant-east-asian:normal;font-feature-settings:normal;font-variation-settings:normal;text-indent:0;text-align:start;text-decoration-line:none;text-decoration-style:solid;text-decoration-color:#000;text-transform:none;text-orientation:mixed;shape-padding:0;shape-margin:0;inline-size:0;isolation:auto;mix-blend-mode:normal" d="M-30.429688 166.92969A3.2685001 3.2685001 0 0 0-33.699219 170.19727L-33.701172 183.69531A3.2685001 3.2685001 0 0 0-30.433594 186.96484 3.2685001 3.2685001 0 0 0-27.164062 183.69727L-27.162109 170.19922A3.2685001 3.2685001 0 0 0-30.429688 166.92969zM-30.160156 88.484375A3.2685001 3.2685001 0 0 0-33.427734 91.751953L-33.427734 105.24805A3.2685001 3.2685001 0 0 0-30.160156 108.51562 3.2685001 3.2685001 0 0 0-26.890625 105.24805L-26.890625 91.751953A3.2685001 3.2685001 0 0 0-30.160156 88.484375z" color="#000" font-family="sans-serif" font-weight="400" overflow="visible" transform="rotate(-45.004) scale(.07773 .07797)" white-space="normal"/><path style="line-height:normal;font-variant-ligatures:normal;font-variant-position:normal;font-variant-caps:normal;font-variant-numeric:normal;font-variant-alternates:normal;font-variant-east-asian:normal;font-feature-settings:normal;font-variation-settings:normal;text-indent:0;text-align:start;text-decoration-line:none;text-decoration-style:solid;text-decoration-color:#000;text-transform:none;text-orientation:mixed;shape-padding:0;shape-margin:0;inline-size:0;isolation:auto;mix-blend-mode:normal" d="M138.125-.89648438A3.2685001 3.2685001 0 0 0 134.85742 2.3730469L134.86133 15.869141A3.2685001 3.2685001 0 0 0 138.13086 19.136719 3.2685001 3.2685001 0 0 0 141.39844 15.867188L141.39453 2.3710938A3.2685001 3.2685001 0 0 0 138.125-.89648438zM138.45117-79.292969A3.2685001 3.2685001 0 0 0 135.18164-76.025391L135.17969-62.527344A3.2685001 3.2685001 0 0 0 138.44727-59.257812 3.2685001 3.2685001 0 0 0 141.7168-62.527344L141.71875-76.025391A3.2685001 3.2685001 0 0 0 138.45117-79.292969z" color="#000" font-family="sans-serif" font-weight="400" overflow="visible" transform="rotate(-45.004) scale(.07773 -.07797)" white-space="normal"/><path style="line-height:normal;font-variant-ligatures:normal;font-variant-position:normal;font-variant-caps:normal;font-variant-numeric:normal;font-variant-alternates:normal;font-variant-east-asian:normal;font-feature-settings:normal;font-variation-settings:normal;text-indent:0;text-align:start;text-decoration-line:none;text-decoration-style:solid;text-decoration-color:#000;text-transform:none;text-orientation:mixed;shape-padding:0;shape-margin:0;inline-size:0;isolation:auto;mix-blend-mode:normal" d="M 76.386719 69.511719 A 3.2685001 3.2685001 0 0 0 73.119141 72.779297 L 73.119141 86.273438 A 3.2685001 3.2685001 0 0 0 76.386719 89.542969 A 3.2685001 3.2685001 0 0 0 79.65625 86.273438 L 79.65625 72.779297 A 3.2685001 3.2685001 0 0 0 76.386719 69.511719 z " color="#000" font-family="sans-serif" font-weight="400" overflow="visible" transform="scale(.07772 .07797)" white-space="normal"/><path style="line-height:normal;font-variant-ligatures:normal;font-variant-position:normal;font-variant-caps:normal;font-variant-numeric:normal;font-variant-alternates:normal;font-variant-east-asian:normal;font-feature-settings:normal;font-variation-settings:normal;text-indent:0;text-align:start;text-decoration-line:none;text-decoration-style:solid;text-decoration-color:#000;text-transform:none;text-orientation:mixed;shape-padding:0;shape-margin:0;inline-size:0;isolation:auto;mix-blend-mode:normal" d="M-119.18555 105.34961A3.2685001 3.2685001 0 0 0-122.45312 108.61719L-122.45312 122.11523A3.2685001 3.2685001 0 0 0-119.18555 125.38477 3.2685001 3.2685001 0 0 0-115.91602 122.11523L-115.91602 108.61719A3.2685001 3.2685001 0 0 0-119.18555 105.34961zM-119.18555 26.949219A3.2685001 3.2685001 0 0 0-122.45312 30.216797L-122.45312 43.707031A3.2685001 3.2685001 0 0 0-119.18555 46.976562 3.2685001 3.2685001 0 0 0-115.91602 43.707031L-115.91602 30.216797A3.2685001 3.2685001 0 0 0-119.18555 26.949219z" color="#000" font-family="sans-serif" font-weight="400" overflow="visible" transform="matrix(0 -.07772 .07797 0 0 0)" white-space="normal"/></g></svg>
